<?xml version="1.0" standalone="no"?>
<!DOCTYPE svg PUBLIC "-//W3C//DTD SVG 20010904//EN"
 "http://www.w3.org/TR/2001/REC-SVG-20010904/DTD/svg10.dtd">
<svg version="1.0" xmlns="http://www.w3.org/2000/svg"
 width="50px" height="39px" viewBox="0 0 300.000000 300.000000"
 preserveAspectRatio="xMidYMid meet">
 
<metadata>
Created by potrace 1.10, written by Peter Selinger 2001-2011
</metadata>
<g transform="translate(0.000000,300.000000) scale(0.100000,-0.100000)"
fill="#000000" stroke="none">
<path d="M1179 2490 c-80 -42 -139 -144 -139 -241 0 -100 49 -183 176 -294
121 -106 129 -117 129 -192 0 -55 1 -60 12 -40 17 31 16 113 -3 152 -8 18 -58
79 -111 136 -110 119 -143 178 -143 258 0 85 18 130 77 189 56 57 57 61 2 32z"/>
<path d="M1273 2383 c-22 -33 -21 -88 2 -136 9 -20 57 -82 106 -139 147 -169
186 -273 140 -375 -23 -49 -51 -69 -140 -101 l-66 -23 62 5 c114 10 167 44
203 129 18 40 21 64 17 109 -9 98 -44 156 -175 291 -66 67 -124 132 -131 144
-14 27 -14 78 -1 104 16 28 3 23 -17 -8z"/>
<path d="M1845 1725 c69 -28 115 -73 115 -112 0 -37 -66 -96 -137 -123 -111
-42 -229 -61 -414 -67 -313 -10 -561 41 -652 133 -24 24 -28 35 -24 66 6 43
-6 41 -29 -5 -14 -25 -16 -49 -10 -128 11 -173 66 -346 152 -475 44 -66 132
-164 147 -164 6 0 -1 12 -15 28 -99 107 -174 287 -204 486 -8 54 -13 100 -11
102 2 3 29 -7 59 -21 159 -73 464 -109 723 -86 181 17 288 41 416 95 15 6 16
2 8 -38 -40 -216 -121 -370 -262 -502 -166 -155 -381 -210 -569 -145 -32 11
-58 18 -58 16 0 -11 89 -48 157 -66 364 -93 714 181 813 636 15 67 51 105 101
105 94 0 112 -89 46 -224 -26 -51 -62 -101 -115 -157 -81 -86 -66 -91 31 -10
112 94 186 219 194 325 5 72 -7 100 -57 134 -29 20 -44 23 -90 19 -30 -2 -63
-8 -72 -12 -15 -6 -18 -2 -18 31 0 55 -63 112 -169 153 -95 36 -144 42 -56 6z
m189 -161 c8 -28 20 -43 42 -54 l30 -15 -28 -24 c-16 -12 -37 -39 -48 -59
l-19 -37 -1 33 c0 41 -42 87 -68 77 -49 -21 -53 -16 -15 19 23 20 48 52 58 72
20 43 35 40 49 -12z m194 -70 c12 -8 27 -25 33 -37 11 -19 8 -18 -20 6 -18 15
-37 27 -42 27 -5 0 -9 5 -9 10 0 14 12 12 38 -6z m-242 -226 c-20 -68 -51
-138 -61 -138 -2 0 9 32 26 72 16 39 32 89 35 110 4 21 10 36 14 33 4 -3 -2
-37 -14 -77z m-69 -170 c-21 -40 -50 -79 -54 -75 -5 6 50 97 59 97 4 0 1 -10
-5 -22z"/>
<path d="M1865 749 c56 -30 75 -49 75 -75 0 -126 -680 -202 -1078 -119 -35 7
-60 9 -55 5 16 -17 210 -49 358 -61 374 -29 815 38 865 132 9 16 8 26 -5 46
-17 25 -114 75 -170 87 -27 5 -26 4 10 -15z"/>
</g>
</svg>
