<?xml version="1.0" standalone="no"?>
<!DOCTYPE svg PUBLIC "-//W3C//DTD SVG 20010904//EN"
 "http://www.w3.org/TR/2001/REC-SVG-20010904/DTD/svg10.dtd">
<svg version="1.0" xmlns="http://www.w3.org/2000/svg"
 width="50px" height="39px" viewBox="0 0 52.000000 51.000000"
 preserveAspectRatio="xMidYMid meet">
<metadata>
Created by potrace 1.10, written by Peter Selinger 2001-2011
</metadata>
<g transform="translate(0.000000,51.000000) scale(0.100000,-0.100000)"
fill="#000000" stroke="none">
<path d="M208 439 c-29 -16 -22 -61 14 -95 29 -26 30 -27 15 -4 -38 56 -41 69
-22 90 20 22 18 24 -7 9z"/>
<path d="M220 409 c0 -6 11 -24 25 -41 31 -37 31 -52 3 -66 -15 -7 -18 -11 -8
-11 21 -1 40 19 40 42 0 11 -13 35 -30 54 -16 18 -30 29 -30 22z"/>
<path d="M324 307 c29 -21 -3 -38 -76 -40 -48 -1 -71 3 -93 17 l-28 18 6 -41
c5 -40 34 -98 43 -88 2 2 -2 17 -11 33 -8 16 -15 34 -15 39 0 6 38 10 95 10
90 0 94 -1 89 -20 -4 -11 -18 -32 -32 -47 -20 -22 -35 -28 -71 -29 -45 -1 -45
-1 -15 -11 48 -16 100 11 124 64 12 27 16 46 10 52 -6 6 -10 14 -10 20 0 5 9
0 20 -12 25 -26 25 -27 -1 -65 l-21 -32 31 33 c33 34 41 72 16 72 -8 0 -24 9
-35 20 -11 11 -25 20 -32 20 -6 0 -4 -6 6 -13z"/>
<path d="M328 139 c-2 -6 -38 -14 -83 -19 l-80 -7 70 -1 c76 0 116 8 116 23 1
14 -18 18 -23 4z"/>
</g>
</svg>
